<?xml version="1.0" encoding="UTF-8" standalone="no"?>
<svg
    fill="#000000"
    width="800px"
    height="800px"
    viewBox="0 0 64 64"
    version="1.1"
    xmlns="http://www.w3.org/2000/svg"
    xmlns:xlink="http://www.w3.org/1999/xlink"
    xml:space="preserve"
    style="fill-rule:evenodd;clip-rule:evenodd;stroke-linejoin:round;stroke-miterlimit:2;"
>
    <g transform="matrix(1,0,0,1,-1024,-192)">
        <rect x="0" y="0" width="1280" height="800" style="fill:none;" />
        <g>
            <g id="hamburger-1" transform="matrix(1.50868,0,0,1.01217,6.67804,191.698)">
                <g transform="matrix(0.149202,0,0,0.173437,664.206,42.142)">
                    <rect x="103.288" y="8.535" width="212.447" height="34.133" style="fill-rule:nonzero;" />
                </g>
                <g transform="matrix(0.149202,0,0,0.173437,664.345,27.4)">
                    <rect x="103.288" y="8.535" width="212.447" height="34.133" style="fill-rule:nonzero;" />
                </g>
                <g transform="matrix(0.149202,0,0,0.173437,664.345,12.658)">
                    <rect x="103.288" y="8.535" width="212.447" height="34.133" style="fill-rule:nonzero;" />
                </g>
            </g>
            <g transform="matrix(0.638317,0.368532,-0.368532,0.638317,785.021,-208.975)">
                <g id="coffee-bean" />
            </g>
            <g transform="matrix(0.638317,0.368532,-0.368532,0.638317,913.062,-208.975)">
                <g id="coffee-bean-filled" />
            </g>
            <g transform="matrix(1,0,0,1,128.011,1.35415)">
                <g id="clipboard-paste" />
            </g>
        </g>
    </g>
</svg>
